<mxfile host="Electron" agent="Mozilla/5.0 (Windows NT 10.0; Win64; x64) AppleWebKit/537.36 (KHTML, like Gecko) draw.io/27.0.9 Chrome/134.0.6998.205 Electron/35.4.0 Safari/537.36" version="27.0.9">
  <diagram name="Page-1" id="0bJKzC_lkD_PklMflbeV">
    <mxGraphModel dx="2276" dy="841" grid="1" gridSize="10" guides="1" tooltips="1" connect="1" arrows="1" fold="1" page="1" pageScale="1" pageWidth="850" pageHeight="1100" math="0" shadow="0">
      <root>
        <mxCell id="0" />
        <mxCell id="1" parent="0" />
        <mxCell id="0KMm6YOhK_s9kQioPzrO-35" value="" style="rounded=0;whiteSpace=wrap;html=1;fillColor=none;strokeColor=#666666;dashed=1;dashPattern=1 1;fontColor=#333333;" parent="1" vertex="1">
          <mxGeometry x="-25" y="240" width="130" height="380" as="geometry" />
        </mxCell>
        <mxCell id="abakDMtBOBNUqnQ7nTOK-7" value="" style="rounded=0;whiteSpace=wrap;html=1;fillColor=none;strokeColor=#d6b656;dashed=1;dashPattern=1 1;" vertex="1" parent="1">
          <mxGeometry x="130" y="240" width="130" height="380" as="geometry" />
        </mxCell>
        <mxCell id="JaZag6ridly8p4xAuebM-1" value="&lt;b&gt;&lt;font style=&quot;font-size: 18px;&quot;&gt;Data Flow Diagram&lt;/font&gt;&lt;/b&gt;" style="text;html=1;align=center;verticalAlign=middle;resizable=0;points=[];autosize=1;strokeColor=none;fillColor=none;" parent="1" vertex="1">
          <mxGeometry x="-100" y="130" width="190" height="40" as="geometry" />
        </mxCell>
        <mxCell id="JaZag6ridly8p4xAuebM-3" value="" style="rounded=0;whiteSpace=wrap;html=1;fillColor=none;strokeColor=default;dashed=1;dashPattern=1 1;" parent="1" vertex="1">
          <mxGeometry x="-410" y="240" width="170" height="380" as="geometry" />
        </mxCell>
        <mxCell id="JaZag6ridly8p4xAuebM-6" value="Sources" style="rounded=0;whiteSpace=wrap;html=1;fillColor=default;strokeColor=none;" parent="1" vertex="1">
          <mxGeometry x="-375" y="220" width="100" height="40" as="geometry" />
        </mxCell>
        <mxCell id="JaZag6ridly8p4xAuebM-17" style="edgeStyle=orthogonalEdgeStyle;rounded=0;orthogonalLoop=1;jettySize=auto;html=1;" parent="1" source="JaZag6ridly8p4xAuebM-7" target="JaZag6ridly8p4xAuebM-14" edge="1">
          <mxGeometry relative="1" as="geometry">
            <Array as="points">
              <mxPoint x="-250" y="361" />
              <mxPoint x="-250" y="361" />
            </Array>
          </mxGeometry>
        </mxCell>
        <mxCell id="0KMm6YOhK_s9kQioPzrO-21" style="edgeStyle=orthogonalEdgeStyle;rounded=0;orthogonalLoop=1;jettySize=auto;html=1;entryX=0;entryY=0.5;entryDx=0;entryDy=0;" parent="1" source="JaZag6ridly8p4xAuebM-7" target="JaZag6ridly8p4xAuebM-15" edge="1">
          <mxGeometry relative="1" as="geometry" />
        </mxCell>
        <mxCell id="0KMm6YOhK_s9kQioPzrO-22" style="edgeStyle=orthogonalEdgeStyle;rounded=0;orthogonalLoop=1;jettySize=auto;html=1;entryX=0;entryY=0.5;entryDx=0;entryDy=0;" parent="1" source="JaZag6ridly8p4xAuebM-7" target="JaZag6ridly8p4xAuebM-13" edge="1">
          <mxGeometry relative="1" as="geometry" />
        </mxCell>
        <mxCell id="JaZag6ridly8p4xAuebM-7" value="" style="image;aspect=fixed;html=1;points=[];align=center;fontSize=12;image=img/lib/azure2/general/File.svg;" parent="1" vertex="1">
          <mxGeometry x="-341.5" y="340.66" width="33" height="40.66" as="geometry" />
        </mxCell>
        <mxCell id="JaZag6ridly8p4xAuebM-8" value="CRM" style="text;html=1;align=center;verticalAlign=middle;whiteSpace=wrap;rounded=0;" parent="1" vertex="1">
          <mxGeometry x="-356.5" y="390" width="60" height="30" as="geometry" />
        </mxCell>
        <mxCell id="JaZag6ridly8p4xAuebM-29" style="edgeStyle=orthogonalEdgeStyle;rounded=0;orthogonalLoop=1;jettySize=auto;html=1;entryX=0;entryY=0.5;entryDx=0;entryDy=0;" parent="1" source="JaZag6ridly8p4xAuebM-9" target="JaZag6ridly8p4xAuebM-19" edge="1">
          <mxGeometry relative="1" as="geometry" />
        </mxCell>
        <mxCell id="JaZag6ridly8p4xAuebM-31" style="edgeStyle=orthogonalEdgeStyle;rounded=0;orthogonalLoop=1;jettySize=auto;html=1;" parent="1" source="JaZag6ridly8p4xAuebM-9" target="JaZag6ridly8p4xAuebM-20" edge="1">
          <mxGeometry relative="1" as="geometry" />
        </mxCell>
        <mxCell id="JaZag6ridly8p4xAuebM-32" style="edgeStyle=orthogonalEdgeStyle;rounded=0;orthogonalLoop=1;jettySize=auto;html=1;entryX=0;entryY=0.5;entryDx=0;entryDy=0;" parent="1" source="JaZag6ridly8p4xAuebM-9" target="JaZag6ridly8p4xAuebM-21" edge="1">
          <mxGeometry relative="1" as="geometry" />
        </mxCell>
        <mxCell id="JaZag6ridly8p4xAuebM-9" value="" style="image;aspect=fixed;html=1;points=[];align=center;fontSize=12;image=img/lib/azure2/general/File.svg;" parent="1" vertex="1">
          <mxGeometry x="-341.5" y="509" width="33" height="40.66" as="geometry" />
        </mxCell>
        <mxCell id="JaZag6ridly8p4xAuebM-10" value="ERP" style="text;html=1;align=center;verticalAlign=middle;whiteSpace=wrap;rounded=0;" parent="1" vertex="1">
          <mxGeometry x="-355" y="550" width="60" height="30" as="geometry" />
        </mxCell>
        <mxCell id="0KMm6YOhK_s9kQioPzrO-34" style="edgeStyle=orthogonalEdgeStyle;rounded=0;orthogonalLoop=1;jettySize=auto;html=1;" parent="1" source="JaZag6ridly8p4xAuebM-13" target="0KMm6YOhK_s9kQioPzrO-2" edge="1">
          <mxGeometry relative="1" as="geometry" />
        </mxCell>
        <mxCell id="JaZag6ridly8p4xAuebM-13" value="cm_sales_details" style="rounded=0;whiteSpace=wrap;html=1;fillColor=#ffe6cc;strokeColor=#d79b00;" parent="1" vertex="1">
          <mxGeometry x="-160" y="290" width="100" height="40" as="geometry" />
        </mxCell>
        <mxCell id="0KMm6YOhK_s9kQioPzrO-12" style="edgeStyle=orthogonalEdgeStyle;rounded=0;orthogonalLoop=1;jettySize=auto;html=1;" parent="1" source="JaZag6ridly8p4xAuebM-14" target="0KMm6YOhK_s9kQioPzrO-3" edge="1">
          <mxGeometry relative="1" as="geometry" />
        </mxCell>
        <mxCell id="JaZag6ridly8p4xAuebM-14" value="cm_cust_info" style="rounded=0;whiteSpace=wrap;html=1;fillColor=#ffe6cc;strokeColor=#d79b00;" parent="1" vertex="1">
          <mxGeometry x="-160" y="340.65999999999997" width="100" height="40" as="geometry" />
        </mxCell>
        <mxCell id="0KMm6YOhK_s9kQioPzrO-13" style="edgeStyle=orthogonalEdgeStyle;rounded=0;orthogonalLoop=1;jettySize=auto;html=1;" parent="1" source="JaZag6ridly8p4xAuebM-15" target="0KMm6YOhK_s9kQioPzrO-4" edge="1">
          <mxGeometry relative="1" as="geometry" />
        </mxCell>
        <mxCell id="JaZag6ridly8p4xAuebM-15" value="crm_prd_info" style="rounded=0;whiteSpace=wrap;html=1;fillColor=#ffe6cc;strokeColor=#d79b00;" parent="1" vertex="1">
          <mxGeometry x="-160" y="390" width="100" height="40" as="geometry" />
        </mxCell>
        <mxCell id="0KMm6YOhK_s9kQioPzrO-14" style="edgeStyle=orthogonalEdgeStyle;rounded=0;orthogonalLoop=1;jettySize=auto;html=1;" parent="1" source="JaZag6ridly8p4xAuebM-19" target="0KMm6YOhK_s9kQioPzrO-5" edge="1">
          <mxGeometry relative="1" as="geometry" />
        </mxCell>
        <mxCell id="JaZag6ridly8p4xAuebM-19" value="erp_cust_az12" style="rounded=0;whiteSpace=wrap;html=1;fillColor=#ffe6cc;strokeColor=#d79b00;" parent="1" vertex="1">
          <mxGeometry x="-160" y="459" width="100" height="40" as="geometry" />
        </mxCell>
        <mxCell id="0KMm6YOhK_s9kQioPzrO-15" style="edgeStyle=orthogonalEdgeStyle;rounded=0;orthogonalLoop=1;jettySize=auto;html=1;" parent="1" source="JaZag6ridly8p4xAuebM-20" target="0KMm6YOhK_s9kQioPzrO-6" edge="1">
          <mxGeometry relative="1" as="geometry" />
        </mxCell>
        <mxCell id="JaZag6ridly8p4xAuebM-20" value="erp_loc_a101" style="rounded=0;whiteSpace=wrap;html=1;fillColor=#ffe6cc;strokeColor=#d79b00;" parent="1" vertex="1">
          <mxGeometry x="-160" y="510" width="100" height="40" as="geometry" />
        </mxCell>
        <mxCell id="0KMm6YOhK_s9kQioPzrO-16" style="edgeStyle=orthogonalEdgeStyle;rounded=0;orthogonalLoop=1;jettySize=auto;html=1;" parent="1" source="JaZag6ridly8p4xAuebM-21" target="0KMm6YOhK_s9kQioPzrO-7" edge="1">
          <mxGeometry relative="1" as="geometry" />
        </mxCell>
        <mxCell id="JaZag6ridly8p4xAuebM-21" value="erp_px_cat_g1v2" style="rounded=0;whiteSpace=wrap;html=1;fillColor=#ffe6cc;strokeColor=#d79b00;" parent="1" vertex="1">
          <mxGeometry x="-160" y="560" width="100" height="40" as="geometry" />
        </mxCell>
        <mxCell id="0KMm6YOhK_s9kQioPzrO-2" value="cm_sales_details" style="rounded=0;whiteSpace=wrap;html=1;fillColor=#f5f5f5;strokeColor=#666666;fontColor=#333333;" parent="1" vertex="1">
          <mxGeometry x="-10" y="290" width="100" height="40" as="geometry" />
        </mxCell>
        <mxCell id="0KMm6YOhK_s9kQioPzrO-3" value="cm_cust_info" style="rounded=0;whiteSpace=wrap;html=1;fillColor=#f5f5f5;strokeColor=#666666;fontColor=#333333;" parent="1" vertex="1">
          <mxGeometry x="-10" y="340.65999999999997" width="100" height="40" as="geometry" />
        </mxCell>
        <mxCell id="0KMm6YOhK_s9kQioPzrO-5" value="erp_cust_az12" style="rounded=0;whiteSpace=wrap;html=1;fillColor=#f5f5f5;strokeColor=#666666;fontColor=#333333;" parent="1" vertex="1">
          <mxGeometry x="-10" y="459" width="100" height="40" as="geometry" />
        </mxCell>
        <mxCell id="0KMm6YOhK_s9kQioPzrO-6" value="erp_loc_a101" style="rounded=0;whiteSpace=wrap;html=1;fillColor=#f5f5f5;strokeColor=#666666;fontColor=#333333;" parent="1" vertex="1">
          <mxGeometry x="-10" y="510" width="100" height="40" as="geometry" />
        </mxCell>
        <mxCell id="0KMm6YOhK_s9kQioPzrO-7" value="erp_px_cat_g1v2" style="rounded=0;whiteSpace=wrap;html=1;fillColor=#f5f5f5;strokeColor=#666666;fontColor=#333333;" parent="1" vertex="1">
          <mxGeometry x="-10" y="560" width="100" height="40" as="geometry" />
        </mxCell>
        <mxCell id="0KMm6YOhK_s9kQioPzrO-23" value="" style="rounded=0;whiteSpace=wrap;html=1;fillColor=none;strokeColor=#d79b00;dashed=1;dashPattern=1 1;" parent="1" vertex="1">
          <mxGeometry x="-176" y="240" width="130" height="380" as="geometry" />
        </mxCell>
        <mxCell id="0KMm6YOhK_s9kQioPzrO-25" value="&lt;b&gt;Bronze Layer&lt;/b&gt;" style="rounded=0;whiteSpace=wrap;html=1;fillColor=#ffe6cc;strokeColor=#d79b00;" parent="1" vertex="1">
          <mxGeometry x="-150" y="220" width="80" height="40" as="geometry" />
        </mxCell>
        <mxCell id="0KMm6YOhK_s9kQioPzrO-36" value="&lt;b&gt;Silver Layer&lt;/b&gt;" style="rounded=0;whiteSpace=wrap;html=1;fillColor=#f5f5f5;strokeColor=#666666;fontColor=#333333;" parent="1" vertex="1">
          <mxGeometry y="220" width="80" height="40" as="geometry" />
        </mxCell>
        <mxCell id="abakDMtBOBNUqnQ7nTOK-1" value="fact_sales" style="rounded=0;whiteSpace=wrap;html=1;fillColor=#fff2cc;strokeColor=#d6b656;" vertex="1" parent="1">
          <mxGeometry x="145" y="290" width="100" height="40" as="geometry" />
        </mxCell>
        <mxCell id="abakDMtBOBNUqnQ7nTOK-2" value="dim_customers" style="rounded=0;whiteSpace=wrap;html=1;fillColor=#fff2cc;strokeColor=#d6b656;" vertex="1" parent="1">
          <mxGeometry x="145" y="369.99999999999994" width="100" height="40" as="geometry" />
        </mxCell>
        <mxCell id="abakDMtBOBNUqnQ7nTOK-3" value="dim_products" style="rounded=0;whiteSpace=wrap;html=1;fillColor=#fff2cc;strokeColor=#d6b656;" vertex="1" parent="1">
          <mxGeometry x="145" y="459" width="100" height="40" as="geometry" />
        </mxCell>
        <mxCell id="abakDMtBOBNUqnQ7nTOK-8" value="&lt;b&gt;Gold Layer&lt;/b&gt;" style="rounded=0;whiteSpace=wrap;html=1;fillColor=#fff2cc;strokeColor=#d6b656;" vertex="1" parent="1">
          <mxGeometry x="155" y="220" width="80" height="40" as="geometry" />
        </mxCell>
        <mxCell id="abakDMtBOBNUqnQ7nTOK-9" style="edgeStyle=orthogonalEdgeStyle;rounded=0;orthogonalLoop=1;jettySize=auto;html=1;" edge="1" parent="1" source="0KMm6YOhK_s9kQioPzrO-2" target="abakDMtBOBNUqnQ7nTOK-1">
          <mxGeometry relative="1" as="geometry">
            <mxPoint x="90" y="309.5" as="sourcePoint" />
            <mxPoint x="140" y="309.5" as="targetPoint" />
          </mxGeometry>
        </mxCell>
        <mxCell id="abakDMtBOBNUqnQ7nTOK-12" value="" style="endArrow=none;html=1;rounded=0;" edge="1" parent="1" source="0KMm6YOhK_s9kQioPzrO-5" target="abakDMtBOBNUqnQ7nTOK-2">
          <mxGeometry width="50" height="50" relative="1" as="geometry">
            <mxPoint x="90" y="480" as="sourcePoint" />
            <mxPoint x="140" y="430" as="targetPoint" />
          </mxGeometry>
        </mxCell>
        <mxCell id="abakDMtBOBNUqnQ7nTOK-13" value="" style="endArrow=none;html=1;rounded=0;" edge="1" parent="1" source="0KMm6YOhK_s9kQioPzrO-6" target="abakDMtBOBNUqnQ7nTOK-2">
          <mxGeometry width="50" height="50" relative="1" as="geometry">
            <mxPoint x="100" y="529" as="sourcePoint" />
            <mxPoint x="185" y="480" as="targetPoint" />
          </mxGeometry>
        </mxCell>
        <mxCell id="abakDMtBOBNUqnQ7nTOK-14" value="" style="endArrow=classic;html=1;rounded=0;" edge="1" parent="1" source="0KMm6YOhK_s9kQioPzrO-4" target="abakDMtBOBNUqnQ7nTOK-3">
          <mxGeometry width="50" height="50" relative="1" as="geometry">
            <mxPoint x="120" y="410" as="sourcePoint" />
            <mxPoint x="170" y="360" as="targetPoint" />
          </mxGeometry>
        </mxCell>
        <mxCell id="abakDMtBOBNUqnQ7nTOK-16" value="" style="endArrow=classic;html=1;rounded=0;exitX=1;exitY=0.5;exitDx=0;exitDy=0;" edge="1" parent="1" source="0KMm6YOhK_s9kQioPzrO-7" target="abakDMtBOBNUqnQ7nTOK-3">
          <mxGeometry width="50" height="50" relative="1" as="geometry">
            <mxPoint x="120" y="575" as="sourcePoint" />
            <mxPoint x="170" y="525" as="targetPoint" />
          </mxGeometry>
        </mxCell>
        <mxCell id="abakDMtBOBNUqnQ7nTOK-17" value="" style="endArrow=none;html=1;rounded=0;exitX=0.86;exitY=0.9;exitDx=0;exitDy=0;exitPerimeter=0;" edge="1" parent="1" source="0KMm6YOhK_s9kQioPzrO-4" target="abakDMtBOBNUqnQ7nTOK-3">
          <mxGeometry width="50" height="50" relative="1" as="geometry">
            <mxPoint x="110" y="520" as="sourcePoint" />
            <mxPoint x="160" y="470" as="targetPoint" />
          </mxGeometry>
        </mxCell>
        <mxCell id="0KMm6YOhK_s9kQioPzrO-4" value="crm_prd_info" style="rounded=0;whiteSpace=wrap;html=1;fillColor=#f5f5f5;strokeColor=#666666;fontColor=#333333;" parent="1" vertex="1">
          <mxGeometry x="-10" y="390" width="100" height="40" as="geometry" />
        </mxCell>
        <mxCell id="abakDMtBOBNUqnQ7nTOK-18" value="" style="endArrow=none;html=1;rounded=0;" edge="1" parent="1" source="0KMm6YOhK_s9kQioPzrO-3" target="abakDMtBOBNUqnQ7nTOK-2">
          <mxGeometry width="50" height="50" relative="1" as="geometry">
            <mxPoint x="120" y="415" as="sourcePoint" />
            <mxPoint x="170" y="365" as="targetPoint" />
          </mxGeometry>
        </mxCell>
      </root>
    </mxGraphModel>
  </diagram>
</mxfile>
